<!-- Created with Inkscape (http://www.inkscape.org/) by Habib Mustofa -->
<svg xmlns="http://www.w3.org/2000/svg" viewBox="0 0 48 24">
  <path d="M86.135 117.31h47.793v2.104H86.135Zm18.034 1.34V98.842h-3.926v-2.966h19.315l-9.18 2.966h-4.046v19.705zM98.43 96.623l2.952 5.03-3.761-1.422zm31.204 6.287q-1.297 0-2.325.84-1.012.863-1.601 2.327-.59 1.487-.59 3.383 0 1.895.59 3.359.59 1.487 1.6 2.327 1.029.864 2.326.864 1.281 0 2.292-.864 1.028-.84 1.618-2.327.59-1.464.59-3.36 0-1.895-.59-3.382-.59-1.464-1.618-2.328-1.01-.84-2.292-.84zm0 2.255q.792 0 1.416.552.623.576.977 1.535.354.984.337 2.208.017 1.247-.337 2.207-.354.984-.977 1.535-.624.552-1.416.552-.792 0-1.432-.576-.624-.551-.978-1.535-.354-.96-.337-2.183-.017-1.224.337-2.208.354-.96.978-1.535.64-.552 1.432-.552zm-11.981-5.732 3.005 15.97 1.555-.593c.486-1.924 4.222-15.282 4.222-15.282l1.405 8.736 4.86 7.931-5.48-20.411-1.587.605-4.376 15.167.236.252c-.121-.948-.227-1.755-.318-2.422a85.304 85.304 0 0 0-.213-1.679 32.476 32.476 0 0 0-.142-1.12c-.041-.277-.079-.508-.113-.69a8.33 8.33 0 0 0-.074-.485l-1.25-6.639zm-5.004 16.688q-1.543 0-2.764-.998-1.202-1.027-1.903-2.766-.701-1.768-.701-4.021t.7-3.993q.702-1.768 1.904-2.766 1.221-1.026 2.764-1.026 1.522 0 2.724 1.026 1.222.998 1.923 2.766.701 1.74.701 3.993t-.7 4.02q-.702 1.74-1.924 2.767-1.202.998-2.724.998zm0-2.68q.941 0 1.682-.656.742-.685 1.162-1.825.42-1.17.4-2.624.02-1.483-.4-2.624-.42-1.169-1.162-1.825-.74-.656-1.682-.656t-1.703.685q-.74.656-1.162 1.825-.42 1.14-.4 2.595-.02 1.454.4 2.624.421 1.14 1.162 1.825.761.656 1.703.656zm-12.592 1.946v-13.274h2.063v13.274zm-12.12-6.057-.12-3.45 7.351-10.466h2.844zm-1.803 6.046V95.414h2.163v19.962zm9.294 0-5.368-10.21 1.603-1.967 6.47 12.177z" style="stroke-width:3.08115;stroke-linecap:round;stroke-linejoin:round;paint-order:markers stroke fill" transform="translate(-86.135 -95.414)"/>
</svg>